<?xml version="1.0" encoding="utf-8"?>
<!-- Generator: Adobe Illustrator 19.2.1, SVG Export Plug-In . SVG Version: 6.00 Build 0)  -->
<svg version="1.1" id="Слой_1" xmlns="http://www.w3.org/2000/svg" xmlns:xlink="http://www.w3.org/1999/xlink" x="0px" y="0px"
	 viewBox="0 0 841.9 595.3" style="enable-background:new 0 0 841.9 595.3;" xml:space="preserve">
<style type="text/css">
	.st0{fill:#FFFFFF;}
	.st1{font-family:'EstrangeloEdessa';}
	.st2{font-size:28.3763px;}
</style>
<path class="st0" d="M345.6,223.6v88.3c0,0.8,0.6,1.4,1.4,1.4h9.7c0.8,0,1.4-0.6,1.4-1.4v-45.5c0-1.3,1.6-1.9,2.5-1l0,0
	c9.8,10,21.6,15,35.4,15c3.7,0,7.3-0.4,10.8-1.1c9.8-1.8,18.4-6.5,25.8-14.2l0,0c0.9-0.9,2.5-0.3,2.5,1v7.4c0,0.8,0.6,1.4,1.4,1.4
	l9.7,0c0.8,0,1.4-0.6,1.4-1.4v-48.1c0-26.3-21.3-47.7-47.6-47.8l-8.2,0C366.3,177.5,345.6,198.2,345.6,223.6z M415.2,194.8
	c5.9,3.4,10.6,8.3,14.1,14.5c3.5,6.2,5.2,12.8,5.2,19.7c0,6.9-1.8,13.4-5.3,19.7c-3.5,6.3-8.2,11.2-14.2,14.6
	c-5.9,3.5-12.3,5.2-19,5.2c-2.3,0-4.6-0.2-6.8-0.6c-3.8-0.8-7.5-2.3-11-4.4c-5.9-3.5-10.7-8.4-14.2-14.6c-3.5-6.3-5.3-12.8-5.3-19.7
	c0-6.9,1.7-13.5,5.2-19.7c3.5-6.2,8.2-11,14.1-14.5c5.9-3.4,12.4-5.2,19.3-5.2c1.8,0,3.6,0.1,5.3,0.3
	C407.1,191,411.3,192.5,415.2,194.8z"/>
<text transform="matrix(1 0 0 1 331.3637 295.8918)" class="st0 st1 st2">production</text>
</svg>
