<?xml version="1.0" encoding="utf-8"?>
<!-- Generator: Adobe Illustrator 19.2.1, SVG Export Plug-In . SVG Version: 6.00 Build 0)  -->
<svg version="1.1" id="Слой_1" xmlns="http://www.w3.org/2000/svg" xmlns:xlink="http://www.w3.org/1999/xlink" x="0px" y="0px"
	 viewBox="0 0 566.9 566.9" style="enable-background:new 0 0 566.9 566.9;" xml:space="preserve">
<style type="text/css">
	.st0{fill:#FFFFFF;}
</style>
<path class="st0" d="M0,195.7v342.4c0,3.1,2.5,5.6,5.6,5.6h37.6c3.1,0,5.6-2.5,5.6-5.6V361.6c0-5,6.1-7.5,9.6-3.9l0,0
	c37.9,38.9,83.6,58.3,137.2,58.3c14.5,0,28.5-1.5,41.9-4.4c37.9-7.1,71.3-25.4,100.2-54.9v0c3.5-3.6,9.6-1.1,9.6,3.9v28.7
	c0,3.1,2.5,5.6,5.6,5.6l37.6,0c3.1,0,5.6-2.5,5.6-5.6V202.6c0-102.2-82.7-185.1-184.9-185.3l-32-0.1C80.2,16.9,0,96.9,0,195.7z
	 M269.9,83.7c22.9,13.3,41.1,32.1,54.7,56.2s20.3,49.6,20.3,76.5c0,26.7-6.8,52.2-20.5,76.5c-13.7,24.3-32,43.3-55,56.8
	c-23,13.6-47.6,20.3-73.8,20.3c-9,0-17.8-0.8-26.4-2.4c-14.8-3.3-29.1-8.9-42.8-16.9c-23-13.6-41.4-32.5-55-56.8
	c-13.7-24.3-20.5-49.8-20.5-76.5c0-26.9,6.8-52.4,20.3-76.5s31.8-42.8,54.7-56.2c22.9-13.3,47.9-20,75-20c7,0,13.9,0.4,20.5,1.3
	C238.5,69,254.7,74.9,269.9,83.7z"/>
</svg>
